<svg width="686" height="1077" viewBox="0 0 686 1077" fill="none" xmlns="http://www.w3.org/2000/svg">
<path d="M657.261 0.545943L600.172 0.545922C584.404 0.54592 571.627 13.3236 571.627 29.0907L571.627 57.6228L498.72 57.6228C478.942 23.6416 442.538 0.533333 400.384 0.53333L286.23 0.533346C128.609 0.533336 0.820198 128.322 0.807596 285.956L172.051 228.866L195.701 252.517C217.107 273.922 246.144 285.956 276.429 285.943L400.396 285.943C442.551 285.943 478.954 262.835 498.732 228.853L571.639 228.853L571.639 257.386C571.639 273.153 584.417 285.93 600.184 285.93L657.274 285.93C673.041 285.93 685.818 273.153 685.818 257.386L685.818 29.0528C685.806 13.3236 673.028 0.545945 657.261 0.545943ZM276.429 343.032C267.095 343.032 257.975 341.834 248.931 340.384L227.576 962.578C225.445 1024.95 275.42 1076.67 337.82 1076.68C400.22 1076.69 450.208 1024.97 448.063 962.578L426.696 340.472C418.03 341.796 409.327 343.032 400.396 343.032H276.429Z" fill="black" fill-opacity="0.1"/>
</svg>
