<svg width="1094" height="1301" viewBox="0 0 1094 1301" fill="none" xmlns="http://www.w3.org/2000/svg">
<g clip-path="url(#clip0)">
<path d="M686.261 178.546L629.172 178.546C613.404 178.546 600.627 191.324 600.627 207.091L600.627 235.623L527.72 235.623C507.942 201.642 471.538 178.533 429.384 178.533L315.23 178.533C157.609 178.533 29.8202 306.322 29.8076 463.956L201.051 406.866L224.701 430.517C246.107 451.922 275.144 463.956 305.429 463.943L429.396 463.943C471.551 463.943 507.954 440.835 527.732 406.853L600.639 406.853L600.639 435.386C600.639 451.153 613.417 463.93 629.184 463.93L686.274 463.93C702.041 463.93 714.818 451.153 714.818 435.386L714.818 207.053C714.806 191.324 702.028 178.546 686.261 178.546ZM305.429 521.032C296.095 521.032 286.975 519.834 277.931 518.384L256.576 1140.58C254.445 1202.95 304.42 1254.67 366.82 1254.68C429.22 1254.69 479.208 1202.97 477.063 1140.58L455.696 518.472C447.03 519.796 438.327 521.032 429.396 521.032H305.429Z" fill="black" fill-opacity="0.1"/>
</g>
<defs>
<clipPath id="clip0">
<rect width="1027.49" height="913.328" fill="white" transform="translate(-279 654.548) rotate(-45)"/>
</clipPath>
</defs>
</svg>
